<?xml version="1.0" encoding="iso-8859-1"?>
<!-- Generator: Adobe Illustrator 19.0.0, SVG Export Plug-In . SVG Version: 6.00 Build 0)  -->
<svg xmlns="http://www.w3.org/2000/svg" xmlns:xlink="http://www.w3.org/1999/xlink" version="1.1" id="Capa_1" x="0px" y="0px" viewBox="0 0 448 448" style="enable-background:new 0 0 448 448;" xml:space="preserve">
<g>
	<g>
		<g>
			<path d="M370.773,316.16V192c0-69.333-48-127.36-112.853-142.72V33.92C257.92,15.147,242.773,0,224,0s-33.92,15.147-33.92,33.92     v15.36C125.227,64.64,77.227,122.667,77.227,192v124.16L32,361.387V384h384v-22.613L370.773,316.16z M309.333,234.773h-64v64     h-42.667v-64h-64V192h64v-64h42.667v64h64V234.773z"/>
			<path d="M224,448c23.467,0,42.453-18.987,42.453-42.453h-84.907C181.547,429.013,200.533,448,224,448z"/>
		</g>
	</g>
</g>
<g>
</g>
<g>
</g>
<g>
</g>
<g>
</g>
<g>
</g>
<g>
</g>
<g>
</g>
<g>
</g>
<g>
</g>
<g>
</g>
<g>
</g>
<g>
</g>
<g>
</g>
<g>
</g>
<g>
</g>
</svg>
